<?xml version="1.0" encoding="UTF-8" standalone="no"?>
<!-- Created with Inkscape (http://www.inkscape.org/) -->
<svg xmlns:dc="http://purl.org/dc/elements/1.1/" xmlns:cc="http://creativecommons.org/ns#" xmlns:rdf="http://www.w3.org/1999/02/22-rdf-syntax-ns#" xmlns:svg="http://www.w3.org/2000/svg" xmlns="http://www.w3.org/2000/svg" xmlns:sodipodi="http://sodipodi.sourceforge.net/DTD/sodipodi-0.dtd" xmlns:inkscape="http://www.inkscape.org/namespaces/inkscape" width="1000" height="216.207" id="svg2" version="1.1" inkscape:version="0.92.3 (2405546, 2018-03-11)" sodipodi:docname="Android_Logo_(2014).svg">
  <defs id="defs4"/>
  <sodipodi:namedview id="base" pagecolor="#ffffff" bordercolor="#666666" borderopacity="1.0" inkscape:pageopacity="0.0" inkscape:pageshadow="2" inkscape:zoom="0.5" inkscape:cx="807.90184" inkscape:cy="-217.81327" inkscape:document-units="px" inkscape:current-layer="layer1" showgrid="false" fit-margin-left="0.5" fit-margin-bottom="0.5" fit-margin-top="0.5" fit-margin-right="0.5" inkscape:window-width="1360" inkscape:window-height="706" inkscape:window-x="-8" inkscape:window-y="-8" inkscape:window-maximized="1">
    <inkscape:grid type="xygrid" id="grid2996" empspacing="5" visible="true" enabled="true" snapvisiblegridlinesonly="true" originx="-179.26877px" originy="-604.84247px"/>
  </sodipodi:namedview>
  <metadata id="metadata7">
    <rdf:RDF>
      <cc:Work rdf:about="">
        <dc:format>image/svg+xml</dc:format>
        <dc:type rdf:resource="http://purl.org/dc/dcmitype/StillImage"/>
        <dc:title/>
      </cc:Work>
    </rdf:RDF>
  </metadata>
  <g inkscape:label="Layer 1" inkscape:groupmode="layer" id="layer1" transform="translate(-179.26877,-231.31272)">
    <g transform="matrix(7.7517355,0,0,7.7517355,-596.17733,-3800.9188)" style="font-style:normal;font-weight:normal;font-size:40px;line-height:125%;font-family:Sans;letter-spacing:0px;word-spacing:0px;fill:#77c159;fill-opacity:1;stroke:none" id="flowRoot2998">
      <path d="m 100.03516,537.67226 c 0,-1.45833 0.24414,-2.819 0.73242,-4.08204 0.48828,-1.263 1.17187,-2.36326 2.05078,-3.30078 0.8789,-0.93748 1.93033,-1.67315 3.1543,-2.20703 1.22395,-0.53383 2.56509,-0.80076 4.02343,-0.80078 1.10676,2e-5 2.11262,0.16278 3.01758,0.48828 0.90494,0.32554 1.78059,0.8594 2.62696,1.60156 v -1.69921 h 4.96093 v 20 h -4.96093 v -1.69922 c -0.84637,0.74219 -1.72202,1.27604 -2.62696,1.60156 -0.90496,0.32552 -1.91082,0.48828 -3.01758,0.48828 -1.45834,0 -2.79948,-0.26693 -4.02343,-0.80078 -1.22397,-0.53385 -2.2754,-1.26953 -3.1543,-2.20703 -0.87891,-0.9375 -1.5625,-2.03776 -2.05078,-3.30078 -0.48828,-1.26302 -0.73242,-2.62369 -0.73242,-4.08203 z m 10.60547,5.72265 c 0.39061,10e-6 0.80076,-0.0423 1.23046,-0.12695 0.42968,-0.0846 0.86262,-0.22786 1.29883,-0.42969 0.43619,-0.20182 0.86262,-0.472 1.2793,-0.81055 0.41665,-0.33853 0.81378,-0.7552 1.19141,-1.25 v -6.21093 c -0.37763,-0.49478 -0.77476,-0.90819 -1.19141,-1.24024 -0.41668,-0.33201 -0.84311,-0.6022 -1.2793,-0.81054 -0.43621,-0.20832 -0.86915,-0.35481 -1.29883,-0.43946 -0.4297,-0.0846 -0.83985,-0.12693 -1.23046,-0.12695 -0.76824,2e-5 -1.48765,0.14324 -2.15821,0.42969 -0.67058,0.28647 -1.25326,0.68686 -1.74804,1.20117 -0.4948,0.51434 -0.88217,1.1198 -1.16211,1.81641 -0.27996,0.69662 -0.41993,1.45508 -0.41993,2.27539 0,0.82032 0.13997,1.57878 0.41993,2.27539 0.27994,0.69662 0.66731,1.30209 1.16211,1.8164 0.49478,0.51433 1.07746,0.91472 1.74804,1.20117 0.67056,0.28647 1.38997,0.4297 2.15821,0.42969 z" style="font-variant:normal;font-weight:900;font-stretch:normal;font-family:and;-inkscape-font-specification:'and Heavy';fill:#77c159;fill-opacity:1" id="path3007" inkscape:connector-curvature="0"/>
      <path id="path3027" style="font-variant:normal;font-weight:900;font-stretch:normal;font-family:and;-inkscape-font-specification:'and Heavy';fill:#77c159;fill-opacity:1" d="m 133.00288,532.21887 c -2.35078,0.0172 -4.39274,1.6553 -4.39274,4.0862 v 11.36719 h -4.96094 v -11.23047 c 0.0277,-4.683 4.08317,-9.09706 9.28259,-9.16016 h 0.13857 c 5.19942,0.0631 9.25491,4.47716 9.28259,9.16016 v 11.23047 h -4.96094 v -11.36719 c 0,-2.4309 -2.04196,-4.06901 -4.39274,-4.0862" inkscape:connector-curvature="0" sodipodi:nodetypes="csccccccccsc"/>
      <path d="m 144.70146,537.67226 c 0,-1.45833 0.24414,-2.819 0.73242,-4.08204 0.48828,-1.263 1.17187,-2.36326 2.05078,-3.30078 0.8789,-0.93748 1.93033,-1.67315 3.1543,-2.20703 1.22395,-0.53383 2.56509,-0.80076 4.02344,-0.80078 1.10676,2e-5 2.11587,0.16278 3.02734,0.48828 0.91144,0.32554 1.78384,0.85289 2.61719,1.58203 v -7.67578 h 4.96093 v 25.9961 h -4.96093 v -1.67969 c -0.83335,0.74219 -1.70575,1.27279 -2.61719,1.5918 -0.91147,0.31901 -1.92058,0.47851 -3.02734,0.47851 -1.45835,0 -2.79949,-0.26693 -4.02344,-0.80078 -1.22397,-0.53385 -2.2754,-1.26953 -3.1543,-2.20703 -0.87891,-0.9375 -1.5625,-2.03776 -2.05078,-3.30078 -0.48828,-1.26302 -0.73242,-2.62369 -0.73242,-4.08203 z m 10.60547,5.72265 c 0.39061,10e-6 0.80077,-0.0423 1.23047,-0.12695 0.42967,-0.0846 0.86261,-0.22786 1.29882,-0.42969 0.43619,-0.20182 0.86262,-0.472 1.2793,-0.81055 0.41665,-0.33853 0.81379,-0.7552 1.19141,-1.25 v -6.21093 c -0.37762,-0.49478 -0.77476,-0.90819 -1.19141,-1.24024 -0.41668,-0.33201 -0.84311,-0.6022 -1.2793,-0.81054 -0.43621,-0.20832 -0.86915,-0.35481 -1.29882,-0.43946 -0.4297,-0.0846 -0.83986,-0.12693 -1.23047,-0.12695 -0.76824,2e-5 -1.48764,0.14324 -2.15821,0.42969 -0.67058,0.28647 -1.25326,0.68686 -1.74804,1.20117 -0.4948,0.51434 -0.88217,1.1198 -1.16211,1.81641 -0.27996,0.69662 -0.41993,1.45508 -0.41992,2.27539 -1e-5,0.82032 0.13996,1.57878 0.41992,2.27539 0.27994,0.69662 0.66731,1.30209 1.16211,1.8164 0.49478,0.51433 1.07746,0.91472 1.74804,1.20117 0.67057,0.28647 1.38997,0.4297 2.15821,0.42969 z" style="font-variant:normal;font-weight:900;font-stretch:normal;font-family:and;-inkscape-font-specification:'and Heavy';fill:#77c159;fill-opacity:1" id="path3011" inkscape:connector-curvature="0"/>
      <path d="m 188.49982,543.39491 c 0.74218,10e-6 1.44204,-0.13997 2.09961,-0.41992 0.65754,-0.27994 1.23045,-0.67382 1.71875,-1.18164 0.48826,-0.50781 0.87238,-1.11002 1.15234,-1.80664 0.27993,-0.69661 0.41991,-1.46809 0.41992,-2.31445 -1e-5,-0.83333 -0.14324,-1.5983 -0.42968,-2.29493 -0.28648,-0.6966 -0.6771,-1.29881 -1.17188,-1.80664 -0.4948,-0.50779 -1.06772,-0.90493 -1.71875,-1.1914 -0.65105,-0.28645 -1.34116,-0.42967 -2.07031,-0.42969 -0.7422,2e-5 -1.44207,0.14324 -2.09961,0.42969 -0.65756,0.28647 -1.23048,0.68361 -1.71875,1.1914 -0.48829,0.50783 -0.87566,1.11004 -1.16211,1.80664 -0.28646,0.69663 -0.42969,1.4616 -0.42969,2.29493 0,0.84636 0.13997,1.61784 0.41993,2.31445 0.27994,0.69662 0.66405,1.29883 1.15234,1.80664 0.48827,0.50782 1.06119,0.9017 1.71875,1.18164 0.65754,0.27995 1.36392,0.41993 2.11914,0.41992 z m 0,4.66797 c -1.44532,0 -2.806,-0.26042 -4.08203,-0.78125 -1.27605,-0.52083 -2.39258,-1.24674 -3.34961,-2.17773 -0.95703,-0.93099 -1.71224,-2.03125 -2.26563,-3.30078 -0.55338,-1.26953 -0.83007,-2.64648 -0.83007,-4.13086 0,-1.4453 0.27669,-2.79947 0.83007,-4.0625 0.55339,-1.26301 1.30534,-2.36327 2.25586,-3.30079 0.95052,-0.93748 2.06706,-1.67641 3.34961,-2.21679 1.28255,-0.54035 2.64648,-0.81053 4.0918,-0.81055 1.4453,2e-5 2.80598,0.2702 4.08203,0.81055 1.27603,0.54038 2.38931,1.27931 3.33984,2.21679 0.95051,0.93752 1.70246,2.03778 2.25586,3.30079 0.55337,1.26303 0.83006,2.6172 0.83008,4.0625 -2e-5,1.48438 -0.27671,2.86133 -0.83008,4.13086 -0.5534,1.26953 -1.30861,2.36979 -2.26562,3.30078 -0.95705,0.93099 -2.07033,1.6569 -3.33984,2.17773 -1.26955,0.52083 -2.62697,0.78125 -4.07227,0.78125 z" style="font-variant:normal;font-weight:900;font-stretch:normal;font-family:and;-inkscape-font-specification:'and Heavy';fill:#77c159;fill-opacity:1" id="path3015" inkscape:connector-curvature="0"/>
      <path style="font-variant:normal;font-weight:900;font-stretch:normal;font-family:and;-inkscape-font-specification:'and Heavy';fill:#77c159;fill-opacity:1" d="m 203.71093,526.10617 c -0.40194,2e-5 -0.78189,-0.0785 -1.13985,-0.23551 -0.35798,-0.15698 -0.67198,-0.3705 -0.94202,-0.64057 -0.27005,-0.27003 -0.48358,-0.58403 -0.64058,-0.94202 -0.15701,-0.35794 -0.23551,-0.73789 -0.23551,-1.13985 0,-0.4019 0.0785,-0.78499 0.23551,-1.14927 0.157,-0.36422 0.37053,-0.68136 0.64058,-0.95144 0.27004,-0.27002 0.58404,-0.48354 0.94202,-0.64057 0.35796,-0.15698 0.73791,-0.23548 1.13985,-0.23551 0.40192,3e-5 0.78501,0.0785 1.14926,0.23551 0.36424,0.15703 0.68139,0.37055 0.95144,0.64057 0.27004,0.27008 0.48357,0.58722 0.64058,0.95144 0.157,0.36428 0.2355,0.74737 0.23551,1.14927 -1e-5,0.40196 -0.0785,0.78191 -0.23551,1.13985 -0.15701,0.35799 -0.37054,0.67199 -0.64058,0.94202 -0.27005,0.27007 -0.5872,0.48359 -0.95144,0.64057 -0.36425,0.15703 -0.74734,0.23553 -1.14926,0.23551 z" id="path3023" inkscape:connector-curvature="0"/>
      <path style="font-variant:normal;font-weight:900;font-stretch:normal;font-family:and;-inkscape-font-specification:'and Heavy';fill:#77c159;fill-opacity:1" d="m 201.23011,527.67226 h 4.96094 v 20 h -4.96094 z" id="path3017" inkscape:connector-curvature="0"/>
      <path d="m 208.47213,537.67226 c 0,-1.45833 0.24414,-2.819 0.73242,-4.08204 0.48828,-1.263 1.17187,-2.36326 2.05078,-3.30078 0.8789,-0.93748 1.93033,-1.67315 3.1543,-2.20703 1.22395,-0.53383 2.56509,-0.80076 4.02344,-0.80078 1.10676,2e-5 2.11587,0.16278 3.02734,0.48828 0.91144,0.32554 1.78384,0.85289 2.61719,1.58203 v -7.67578 h 4.96093 v 25.9961 h -4.96093 v -1.67969 c -0.83335,0.74219 -1.70575,1.27279 -2.61719,1.5918 -0.91147,0.31901 -1.92058,0.47851 -3.02734,0.47851 -1.45835,0 -2.79949,-0.26693 -4.02344,-0.80078 -1.22397,-0.53385 -2.2754,-1.26953 -3.1543,-2.20703 -0.87891,-0.9375 -1.5625,-2.03776 -2.05078,-3.30078 -0.48828,-1.26302 -0.73242,-2.62369 -0.73242,-4.08203 z m 10.60547,5.72265 c 0.39061,10e-6 0.80077,-0.0423 1.23047,-0.12695 0.42967,-0.0846 0.86261,-0.22786 1.29882,-0.42969 0.43619,-0.20182 0.86262,-0.472 1.2793,-0.81055 0.41665,-0.33853 0.81379,-0.7552 1.19141,-1.25 v -6.21093 c -0.37762,-0.49478 -0.77476,-0.90819 -1.19141,-1.24024 -0.41668,-0.33201 -0.84311,-0.6022 -1.2793,-0.81054 -0.43621,-0.20832 -0.86915,-0.35481 -1.29882,-0.43946 -0.4297,-0.0846 -0.83986,-0.12693 -1.23047,-0.12695 -0.76824,2e-5 -1.48764,0.14324 -2.15821,0.42969 -0.67058,0.28647 -1.25326,0.68686 -1.74804,1.20117 -0.4948,0.51434 -0.88217,1.1198 -1.16211,1.81641 -0.27996,0.69662 -0.41993,1.45508 -0.41992,2.27539 -10e-6,0.82032 0.13996,1.57878 0.41992,2.27539 0.27994,0.69662 0.66731,1.30209 1.16211,1.8164 0.49478,0.51433 1.07746,0.91472 1.74804,1.20117 0.67057,0.28647 1.38997,0.4297 2.15821,0.42969 z" style="font-variant:normal;font-weight:900;font-stretch:normal;font-family:and;-inkscape-font-specification:'and Heavy';fill:#77c159;fill-opacity:1" id="path3019" inkscape:connector-curvature="0"/>
      <path sodipodi:nodetypes="cscccc" inkscape:connector-curvature="0" d="m 177.49976,532.15893 c -3.32459,0 -4.79067,1.71524 -4.79067,4.14614 v 11.36719 h -4.96094 v -11.23047 c 0.0277,-4.683 2.73276,-9.28685 9.75161,-9.28685" style="font-variant:normal;font-weight:900;font-stretch:normal;font-family:and;-inkscape-font-specification:'and Heavy';fill:#77c159;fill-opacity:1" id="path3030"/>
    </g>
  </g>
</svg>